<svg width="51" height="31" viewBox="0 0 51 31" fill="none" xmlns="http://www.w3.org/2000/svg">
<path fill-rule="evenodd" clip-rule="evenodd" d="M25.0882 26.2808C27.732 28.7169 31.2821 30.1943 35.144 30.1943C43.4375 30.1943 50.1502 23.4298 50.1502 15.11C50.1502 6.76476 43.4377 0 35.144 0C31.2821 0 27.732 1.47722 25.0882 3.91355C22.0559 6.68667 20.1377 10.6781 20.1377 15.11C20.1382 19.5419 22.0559 23.5335 25.0882 26.2808Z" fill="#E9B040"/>
<path fill-rule="evenodd" clip-rule="evenodd" d="M48.1545 23.5074C48.1545 23.2482 48.3619 23.041 48.6209 23.041C48.9057 23.041 49.1129 23.2485 49.1129 23.5074C49.1129 23.7929 48.9054 24.0001 48.6209 24.0001C48.3619 24.0001 48.1545 23.7929 48.1545 23.5074ZM48.6209 23.8966C48.8283 23.8966 49.0092 23.7148 49.0092 23.5076C49.0092 23.3004 48.8281 23.145 48.6209 23.145C48.4391 23.145 48.2582 23.3004 48.2582 23.5076C48.2582 23.7148 48.4395 23.8966 48.6209 23.8966ZM48.5691 23.7409H48.4654V23.3002H48.6465C48.6728 23.3002 48.7246 23.3002 48.7502 23.3265C48.802 23.3522 48.802 23.3783 48.802 23.4303C48.802 23.4822 48.7763 23.534 48.7246 23.534L48.8283 23.7414H48.6985L48.6467 23.5596H48.5694V23.7409V23.4818H48.6731C48.6987 23.4818 48.6987 23.4554 48.6987 23.43C48.6987 23.4037 48.6987 23.4037 48.6731 23.3783H48.5694V23.7409H48.5691Z" fill="#E9B040"/>
<path fill-rule="evenodd" clip-rule="evenodd" d="M29.9345 13.5034C29.8827 12.9592 29.779 12.4411 29.6753 11.8966H20.5005C20.6042 11.3524 20.7597 10.8343 20.9152 10.3157H29.235C29.0544 9.77003 28.8469 9.2338 28.6129 8.70886H21.5634C21.8228 8.15993 22.1081 7.6237 22.4187 7.10205H27.7321C27.3902 6.54841 27.0092 6.02017 26.5919 5.5211H23.5592C24.0284 4.94818 24.5394 4.41101 25.0884 3.91429C22.419 1.50383 18.894 0.000732422 15.0063 0.000732422C6.73865 0.000732422 0 6.76549 0 15.1107C0 23.4305 6.73865 30.1951 15.0063 30.1951C18.894 30.1951 22.4187 28.7174 25.0884 26.2815C25.6288 25.7933 26.1314 25.2646 26.5919 24.7001H23.5592C23.1443 24.1817 22.7816 23.6636 22.4187 23.0933H27.7321C28.0663 22.5808 28.3608 22.0436 28.6134 21.4865H21.5634C21.33 20.9681 21.097 20.45 20.9152 19.9051H29.235C29.4161 19.3867 29.5462 18.8429 29.6753 18.2982C29.779 17.7799 29.8827 17.2361 29.9345 16.6914C29.9869 16.166 30.013 15.6383 30.0125 15.11C30.0123 14.566 29.9864 14.0218 29.9345 13.5034Z" fill="#CC2131"/>
<path fill-rule="evenodd" clip-rule="evenodd" d="M48.1545 18.6091C48.1545 18.3243 48.3619 18.1171 48.6209 18.1171C48.9057 18.1171 49.1129 18.3245 49.1129 18.6091C49.1129 18.8683 48.9054 19.1018 48.6209 19.1018C48.3619 19.1018 48.1545 18.868 48.1545 18.6091ZM48.6209 18.9717C48.8283 18.9717 49.0092 18.8163 49.0092 18.6091C49.0092 18.4019 48.8281 18.2464 48.6209 18.2464C48.4391 18.2464 48.2582 18.4019 48.2582 18.6091C48.2582 18.8163 48.4395 18.9717 48.6209 18.9717ZM48.5691 18.8163H48.4654V18.4016H48.7502C48.802 18.428 48.802 18.4797 48.802 18.5317C48.802 18.5573 48.7763 18.6091 48.7246 18.6354L48.8283 18.8165H48.6985L48.6467 18.6611H48.5694V18.8163V18.5832H48.6211C48.6467 18.5832 48.6728 18.5832 48.6728 18.5569C48.6985 18.5569 48.6985 18.5312 48.6985 18.5051C48.6985 18.5051 48.6985 18.4795 48.6728 18.4795C48.6728 18.4532 48.6465 18.4795 48.6211 18.4795H48.5694V18.8163H48.5691Z" fill="white"/>
<path fill-rule="evenodd" clip-rule="evenodd" d="M19.9825 19.4646C19.4902 19.5939 19.1271 19.672 18.7644 19.672C17.9869 19.672 17.5203 19.1793 17.5203 18.298C17.5203 18.1169 17.5461 17.9354 17.572 17.7279L17.6757 17.1322L17.7536 16.6395L18.4533 12.3891H20.0083L19.8268 13.3221H20.8117L20.5784 14.8772H19.5935L19.1788 17.417C19.153 17.5471 19.153 17.6245 19.153 17.6762C19.153 18.0132 19.3084 18.1426 19.6972 18.1426C19.8787 18.1426 20.034 18.1169 20.1894 18.0908L19.9825 19.4646ZM25.0106 19.4126C24.4405 19.5681 23.9221 19.6457 23.3518 19.6457C21.5893 19.6457 20.5784 18.7127 20.5784 16.8728C20.5784 14.7213 21.7708 13.1662 23.4294 13.1662C24.7512 13.1662 25.6066 14.0475 25.6066 15.4207C25.6066 15.8878 25.5548 16.3281 25.4255 16.9502H22.1857C22.1599 17.0539 22.1599 17.1056 22.1599 17.1576C22.1599 17.8832 22.6521 18.2461 23.5853 18.2461C24.1813 18.2461 24.6997 18.1167 25.27 17.8578L25.0106 19.4126ZM24.0515 15.7065V15.3953C24.0515 14.877 23.7662 14.5919 23.2739 14.5919C22.7554 14.5919 22.3927 14.9804 22.2372 15.7062H24.0515V15.7065ZM7.54188 19.5419H5.93506L6.86806 13.6589L4.76876 19.5417H3.65443L3.52484 13.6848L2.53987 19.5417H0.958923L2.22871 11.8964H4.58719L4.63893 16.6138L6.21988 11.8964H8.81167L7.54188 19.5419ZM11.4557 16.7693C11.3002 16.743 11.2482 16.743 11.1445 16.743C10.2115 16.743 9.7449 17.1056 9.7449 17.676C9.7449 18.065 9.97821 18.3241 10.3409 18.3241C11.1186 18.3244 11.4296 17.6762 11.4557 16.7693ZM12.7516 19.5419H11.3519L11.3778 18.8945C11.0149 19.3865 10.5224 19.6457 9.66729 19.6457C8.88975 19.6457 8.21593 18.9462 8.21593 17.9354C8.21593 17.6506 8.26767 17.3916 8.34552 17.1322C8.60447 16.1729 9.56357 15.5771 11.0408 15.5508C11.2224 15.5508 11.5072 15.5508 11.7666 15.5771C11.8181 15.3697 11.8181 15.2916 11.8181 15.1623C11.8181 14.7474 11.4813 14.6178 10.7296 14.6178C10.2633 14.6178 9.74466 14.6956 9.382 14.8252L9.14869 14.877L9.04497 14.9026L9.27828 13.503C10.0299 13.2697 10.5742 13.1662 11.1704 13.1662C12.57 13.1662 13.3214 13.8141 13.3214 15.0061C13.3214 15.3172 13.3473 15.5505 13.2436 16.2244L12.8809 18.4533L12.8292 18.8423L12.8033 19.1534L12.7774 19.3609L12.7516 19.5419ZM32.8377 13.3739C33.3041 13.3739 33.7189 13.5035 34.289 13.7885L34.5739 12.1297C34.4184 12.0519 34.3664 12.0519 34.1592 11.9743L33.5117 11.7927C33.3043 11.7409 33.0454 11.7148 32.7598 11.7148C31.956 11.7148 31.4896 11.7407 30.9976 12.026C30.7384 12.2076 30.4011 12.4409 30.0382 12.8553L29.8308 12.8035L28.172 13.9696L28.2501 13.3217H26.5391L25.5287 19.5417H27.1619L27.7576 16.1987C27.7576 16.1987 27.9911 15.7316 28.0946 15.5767C28.4058 15.1877 28.6647 15.1877 29.0015 15.1877H29.1316C29.0772 15.5825 29.0511 15.9809 29.0535 16.3798C29.0535 18.4013 30.1937 19.6715 31.9562 19.6715C32.3969 19.6715 32.7862 19.6198 33.3819 19.4641L33.6674 17.7018C33.1491 17.9866 32.6825 18.1165 32.2935 18.1165C31.3348 18.1165 30.764 17.3909 30.764 16.2505C30.7638 14.566 31.6194 13.3739 32.8377 13.3739ZM46.5996 11.8966L46.2371 14.0738C45.8481 13.4778 45.3815 13.1925 44.7594 13.1925C43.9038 13.1925 43.1007 13.6848 42.6079 14.618V14.5924L41.5715 13.9701L41.6752 13.3221H39.9385L38.9536 19.5422H40.5604L41.1048 16.1992C41.1048 16.1992 41.5195 15.7321 41.6232 15.5771C41.8824 15.266 42.1416 15.2138 42.349 15.1881C42.1679 15.7065 42.0642 16.3283 42.0642 17.0285C42.0642 18.5836 42.8673 19.62 44.0595 19.62C44.656 19.62 45.1223 19.4126 45.5626 18.9199L45.4852 19.5419H47.0147L48.2586 11.8966H46.5996ZM44.6042 18.065C44.0598 18.065 43.7749 17.6503 43.7749 16.8467C43.7749 15.6284 44.2933 14.7474 45.0445 14.7474C45.6146 14.7474 45.9001 15.1881 45.9001 15.9657C45.9001 17.2098 45.3818 18.065 44.6042 18.065ZM37.1144 16.7693C36.9589 16.743 36.9069 16.743 36.8032 16.743C35.8695 16.743 35.4031 17.1056 35.4031 17.676C35.4031 18.065 35.6367 18.3241 35.9996 18.3241C36.7771 18.3244 37.0883 17.6762 37.1144 16.7693ZM38.4103 19.5419H36.9846L37.0363 18.8945C36.6736 19.3865 36.1807 19.6457 35.326 19.6457C34.5221 19.6457 33.8227 18.9719 33.8227 17.9354C33.8227 16.4584 34.9368 15.5513 36.699 15.5513C36.8808 15.5513 37.1654 15.5513 37.3992 15.5776C37.4509 15.3702 37.4773 15.2921 37.4773 15.1627C37.4773 14.7478 37.1403 14.6183 36.3627 14.6183C35.922 14.6183 35.3777 14.6961 35.0151 14.8257L34.8076 14.8774L34.7039 14.9031L34.937 13.5035C35.6889 13.2702 36.2334 13.1667 36.8291 13.1667C38.2287 13.1667 38.9543 13.8146 38.9543 15.0066C38.9543 15.3177 39.006 15.551 38.8769 16.2248L38.5399 18.4537L38.4881 18.8427L38.4364 19.1539L38.4107 19.3613V19.5419H38.4103ZM16.1465 14.6437C16.4577 14.6437 16.8982 14.6695 17.3648 14.7474L17.5981 13.296C17.1315 13.2443 16.5094 13.1664 16.1465 13.1664C14.3325 13.1664 13.7365 14.1514 13.7365 15.2916C13.7365 16.0435 14.0733 16.5875 14.9546 17.0019C15.6025 17.3131 15.7063 17.3646 15.7063 17.6501C15.7063 18.0384 15.3695 18.2722 14.7471 18.2722C14.2549 18.2722 13.788 18.1941 13.2699 18.013L13.0884 19.438L13.114 19.4643L13.4251 19.5161C13.5289 19.5417 13.6585 19.5678 13.84 19.5935C14.2286 19.6198 14.5658 19.6452 14.773 19.6452C16.5873 19.6452 17.3389 18.9457 17.3389 17.5718C17.3389 16.7169 16.9241 16.1985 16.1207 15.8358C15.421 15.5244 15.3431 15.4732 15.3431 15.1877C15.3431 14.9031 15.6543 14.6437 16.1465 14.6437Z" fill="#1B3771"/>
<path fill-rule="evenodd" clip-rule="evenodd" d="M35.0153 11.6372L34.7298 13.296C34.1597 13.0107 33.7448 12.8813 33.2785 12.8813C32.0602 12.8813 31.205 14.0735 31.205 15.7582C31.205 16.9247 31.7751 17.6242 32.7345 17.6242C33.1228 17.6242 33.5894 17.4948 34.1077 17.2359L33.8229 18.9718C33.2265 19.1273 32.838 19.2053 32.3972 19.2053C30.6349 19.2053 29.5462 17.9351 29.5462 15.888C29.5462 13.1664 31.0496 11.2484 33.2006 11.2484C33.4854 11.2484 33.7446 11.2743 33.9518 11.3263L34.6 11.4817C34.8079 11.5598 34.8599 11.5857 35.0153 11.6372ZM29.7798 12.7779H29.6243C29.0803 12.7779 28.7694 13.037 28.2767 13.7885L28.4321 12.8294H26.9545L25.9441 19.0497H27.5772C28.173 15.2398 28.3284 14.5919 29.106 14.5919H29.2097C29.3651 13.8402 29.5723 13.2957 29.8318 12.8035L29.7798 12.7779ZM20.3978 18.9718C19.9573 19.1273 19.5944 19.1792 19.2318 19.1792C18.4025 19.1792 17.9356 18.7129 17.9356 17.806C17.9356 17.6505 17.9615 17.4433 17.9874 17.2615L18.0911 16.6394L18.169 16.1474L18.8686 11.8964H20.4755L20.2939 12.8294H21.1232L20.9157 14.3586H20.0865L19.6459 16.9504C19.6201 17.0541 19.6201 17.1322 19.6201 17.2095C19.6201 17.5207 19.7755 17.6503 20.1643 17.6503C20.3459 17.6503 20.5011 17.6503 20.6048 17.5985L20.3978 18.9718ZM14.1514 14.7993C14.1514 15.5771 14.5141 16.1211 15.3695 16.5359C16.0433 16.8471 16.147 16.9506 16.147 17.2098C16.147 17.5988 15.8617 17.7799 15.214 17.7799C14.7218 17.7799 14.281 17.7025 13.7627 17.5468L13.5294 18.9718L13.6072 18.9981L13.8925 19.0499C13.996 19.0755 14.1258 19.1016 14.333 19.1016C14.6957 19.1534 15.0068 19.1534 15.2143 19.1534C16.9246 19.1534 17.7284 18.5052 17.7284 17.0799C17.7284 16.2243 17.3916 15.7316 16.5882 15.3433C15.8886 15.0321 15.8107 14.9548 15.8107 14.6695C15.8107 14.3327 16.096 14.1772 16.6141 14.1772C16.9253 14.1772 17.3658 14.2031 17.7807 14.2551L18.0137 12.8296C17.5991 12.7517 16.9514 12.7 16.5882 12.7C14.7735 12.7 14.1256 13.6591 14.1514 14.7993ZM47.4301 19.0499H45.9006L45.9787 18.4534C45.538 18.9198 45.0713 19.1273 44.4749 19.1273C43.2827 19.1273 42.5052 18.1169 42.5052 16.5618C42.5052 14.4882 43.7235 12.7256 45.1487 12.7256C45.7969 12.7256 46.2633 13.0109 46.7045 13.581L47.0672 11.4039H48.674L47.4301 19.0499ZM45.0452 17.5985C45.7971 17.5985 46.3155 16.7173 46.3155 15.499C46.3155 14.6956 46.03 14.2807 45.4599 14.2807C44.7341 14.2807 44.1903 15.1361 44.1903 16.3544C44.1901 17.1841 44.4751 17.5985 45.0452 17.5985ZM25.3737 18.9201C24.8034 19.1019 24.2851 19.1792 23.6891 19.1792C21.8748 19.1792 20.9416 18.2206 20.9416 16.3803C20.9416 14.2551 22.134 12.6741 23.7669 12.6741C25.1146 12.6741 25.9695 13.5554 25.9695 14.9289C25.9695 15.3955 25.9177 15.8365 25.762 16.484H22.5489C22.523 16.5621 22.523 16.614 22.523 16.6658C22.523 17.3916 23.0157 17.7542 23.9485 17.7542C24.5445 17.7542 25.0628 17.6505 25.6332 17.3652L25.3737 18.9201ZM24.4666 15.2137V14.9028C24.4666 14.3844 24.1813 14.0994 23.6891 14.0994C23.1707 14.0994 22.8078 14.4884 22.6524 15.2137H24.4666ZM7.95726 19.0499H6.35044L7.28344 13.1664L5.18414 19.0499H4.06957L3.93998 13.2181L2.95524 19.0499H1.45215L2.72194 11.4041H5.05455L5.13239 16.1472L6.68723 11.4041H9.22728L7.95726 19.0499ZM11.9745 16.2765C11.8191 16.2765 11.7412 16.2509 11.6116 16.2509C10.7045 16.2509 10.2381 16.5877 10.2381 17.2095C10.2381 17.5985 10.4456 17.8316 10.8082 17.8316C11.4818 17.8316 11.9487 17.2098 11.9745 16.2765ZM13.1665 19.0499H11.8186L11.8445 18.4017C11.4296 18.9201 10.8854 19.1536 10.1339 19.1536C9.25268 19.1536 8.65671 18.4798 8.65671 17.4689C8.65671 15.9402 9.69319 15.059 11.5077 15.059C11.6892 15.059 11.9226 15.0848 12.1815 15.1105C12.2332 14.9033 12.2332 14.8256 12.2332 14.7219C12.2332 14.3073 11.948 14.1518 11.1965 14.1518C10.7301 14.1518 10.2115 14.2036 9.84889 14.3073L9.61558 14.3851L9.46012 14.411L9.69343 13.0114C10.4968 12.7781 11.0411 12.7002 11.6375 12.7002C13.0371 12.7002 13.7885 13.3223 13.7885 14.5143C13.7885 14.8254 13.7627 15.0587 13.659 15.7584L13.2961 17.9617L13.2443 18.35L13.2184 18.6611L13.1926 18.8947L13.1665 19.0499ZM37.6332 16.2765C37.4514 16.2765 37.3741 16.2509 37.2706 16.2509C36.3376 16.2509 35.8705 16.5877 35.8705 17.2095C35.8705 17.5985 36.104 17.8316 36.4669 17.8316C37.1149 17.8316 37.6069 17.2098 37.6332 16.2765ZM38.8252 19.0499H37.4775L37.5032 18.4017C37.0885 18.9201 36.5445 19.1536 35.7929 19.1536C34.9116 19.1536 34.3152 18.4798 34.3152 17.4689C34.3152 15.9402 35.3517 15.059 37.1661 15.059C37.3479 15.059 37.5813 15.0848 37.8143 15.1105C37.8661 14.9033 37.8924 14.8256 37.8924 14.7219C37.8924 14.3073 37.6069 14.1518 36.8559 14.1518C36.3888 14.1518 35.8451 14.2036 35.482 14.3073L35.2745 14.3851L35.1191 14.411L35.3521 13.0114C36.156 12.7781 36.6998 12.7002 37.2962 12.7002C38.6958 12.7002 39.4214 13.3223 39.4214 14.5143C39.4214 14.8254 39.4214 15.0587 39.292 15.7584L38.955 17.9617L38.9033 18.35L38.8515 18.6611L38.8259 18.8947V19.0497L38.8252 19.0499ZM43.1792 12.7779H43.0238C42.4798 12.7779 42.1689 13.037 41.6761 13.7885L41.8316 12.8294H40.3539L39.3689 19.0497H40.9757C41.5722 15.2398 41.7276 14.5919 42.5052 14.5919H42.6089C42.7644 13.8402 42.9716 13.2957 43.231 12.8035L43.1792 12.7779Z" fill="white"/>
</svg>
