<svg width="55" height="17" viewBox="0 0 55 17" fill="none" xmlns="http://www.w3.org/2000/svg">
<path d="M19.0947 16.3786L21.8373 0.279907H26.2266L23.4811 16.3786H19.0947Z" fill="#004686"/>
<path d="M39.3966 0.676766C38.5273 0.34949 37.1649 0 35.4633 0C31.1273 0 28.0722 2.18283 28.0471 5.31343C28.0219 7.62657 30.2269 8.91643 31.8914 9.68797C33.6004 10.4773 34.1735 10.9808 34.1661 11.6857C34.1557 12.7638 32.8022 13.2584 31.5405 13.2584C29.7841 13.2584 28.8512 13.014 27.4103 12.4128L26.8446 12.1566L26.2285 15.7611C27.2533 16.2113 29.1488 16.6008 31.1169 16.62C35.7299 16.62 38.7243 14.4609 38.7583 11.12C38.7746 9.28813 37.6062 7.89462 35.0739 6.74545C33.5397 6.00056 32.6008 5.50446 32.6111 4.74921C32.6111 4.07985 33.4064 3.36458 35.1242 3.36458C36.5592 3.34237 37.5988 3.65483 38.4088 3.98063L38.8027 4.16574L39.3966 0.676766Z" fill="#004686"/>
<path d="M50.6493 0.294678H47.2581C46.2082 0.294678 45.4218 0.58197 44.9598 1.63044L38.4424 16.3845H43.0509C43.0509 16.3845 43.8047 14.4016 43.975 13.9662C44.4785 13.9662 48.9552 13.9736 49.595 13.9736C49.7268 14.5364 50.1296 16.386 50.1296 16.386H54.202L50.6493 0.294678ZM45.2367 10.6713C45.5995 9.74423 46.9856 6.17084 46.9856 6.17084C46.9605 6.21379 47.3455 5.23936 47.5676 4.63368L47.8638 6.02127C47.8638 6.02127 48.7035 9.86418 48.8797 10.6713H45.2367Z" fill="#004686"/>
<path d="M15.4131 0.291748L11.1171 11.2711L10.6595 9.04084C9.85979 6.46853 7.36746 3.68298 4.58191 2.28798L8.51071 16.3668L13.1533 16.3609L20.0616 0.291748H15.4131Z" fill="#004686"/>
<path d="M7.13196 0H0.0562745L0 0.334681C5.50446 1.66748 9.14745 4.88841 10.6594 8.75649L9.12079 1.35797C8.85571 0.340604 8.08417 0.0355413 7.13196 0Z" fill="#EF9B11"/>
</svg>
