<svg width="18" height="13" viewBox="0 0 18 13" fill="none" xmlns="http://www.w3.org/2000/svg">
<path fill-rule="evenodd" clip-rule="evenodd" d="M17.9998 6.5001C17.9998 10.0505 14.546 12.9287 10.2856 12.9287C8.76281 12.9287 7.34311 12.561 6.14733 11.9264L0 12.9287L3.37451 9.35944C2.86043 8.49821 2.57134 7.52729 2.57134 6.5001C2.57134 2.9497 6.02511 0.0715332 10.2856 0.0715332C14.546 0.0715332 17.9998 2.9497 17.9998 6.5001ZM8.00005 6.0715C8.00005 6.62379 7.55233 7.0715 7.00005 7.0715C6.44776 7.0715 6.00005 6.62379 6.00005 6.0715C6.00005 5.51922 6.44776 5.0715 7.00005 5.0715C7.55233 5.0715 8.00005 5.51922 8.00005 6.0715ZM10.4278 7.0715C10.9801 7.0715 11.4278 6.62379 11.4278 6.0715C11.4278 5.51922 10.9801 5.0715 10.4278 5.0715C9.8755 5.0715 9.42778 5.51922 9.42778 6.0715C9.42778 6.62379 9.8755 7.0715 10.4278 7.0715ZM14.8575 6.0715C14.8575 6.62379 14.4098 7.0715 13.8575 7.0715C13.3052 7.0715 12.8575 6.62379 12.8575 6.0715C12.8575 5.51922 13.3052 5.0715 13.8575 5.0715C14.4098 5.0715 14.8575 5.51922 14.8575 6.0715Z" fill="white"/>
</svg>
